<?xml version="1.0" encoding="utf-8"?>
<!-- Generator: Adobe Illustrator 23.1.0, SVG Export Plug-In . SVG Version: 6.00 Build 0)  -->
<svg version="1.1" id="Layer_1" xmlns="http://www.w3.org/2000/svg" xmlns:xlink="http://www.w3.org/1999/xlink" x="0px" y="0px"
	 viewBox="0 0 512 512" style="enable-background:new 0 0 512 512;" xml:space="preserve">
<style type="text/css">
	.st0{display:none;}
	.st1{display:inline;}
	.st2{display:none;fill:#FFFFFF;}
	.st3{fill:url(#SVGID_1_);}
	.st4{display:inline;fill:#330066;}
	.st5{fill:#330066;}
</style>
<g id="K7rrE1.tif" class="st0">
	<g class="st1">
		<path class="st2" d="M25.9,25.9c170.7,0,341.4,0,512.2,0c0,170.7,0,341.4,0,512.2c-170.7,0-341.4,0-512.2,0
			C25.9,367.3,25.9,196.6,25.9,25.9z M384.9,323.9c1.4-0.6,2.3-1,3.1-1.4c9.7-4.1,19.7-5.7,30.1-4c19.1,3.1,33.4,14,44.9,28.9
			c16.7,21.6,24.4,46.8,27.9,73.4c1.1,8.2,1.5,16.4,2.3,25.4c0.5-1.5,0.8-2.2,1-3c9.1-41.9,9.7-83.9,2-126.1c-0.5-2.6-0.4-5.4,0.2-8
			c5.8-27.6,6.8-55.3,2.5-83.1c-16.2-104.3-102.4-184.2-207.5-191c-70.4-4.5-130.9,18.6-180.1,69.5
			c-65.2,67.6-80.9,171.1-39.4,255.3c47.8,97,155.5,146.8,260.3,119.6c57.8-15,102.5-48.6,134.7-98.8c0.9-1.4,1.1-4,0.4-5.4
			c-2.4-5.1-5-10.2-8.2-14.9c-3.5-5.2-7.6-9.9-11.4-14.8c-0.9,0.8-1,0.8-1,1c-0.5,0.8-0.9,1.7-1.3,2.5
			c-21.4,40.2-52.9,69.7-94.8,87.9c-24.6,10.7-50.5,15.9-77.4,15.3c-11.8-0.3-20.3-6.3-25.2-16.8c-4.6-10.1-3.4-19.9,3.6-28.6
			c5.3-6.7,13.1-9.1,21-11.4c9.2-2.7,18.6-5.1,27.1-9.3c41.9-20.4,67.3-53.4,73.6-99.9c3.1-23,0-45.9-4.6-68.5
			c-1.4-7.1-3.4-14.2-5.1-21.3c0.4-0.1,0.8-0.3,1.1-0.4c4.4,12,9.3,23.9,13,36.1C386.9,261.9,389.7,292.4,384.9,323.9z"/>
		<path class="st2" d="M253.6,223c11.7,2.3,20.1,8,27.9,15.1c-6.8-21.5-21.9-32.4-44.1-34.1c1.4-5.6,4.6-7.6,18.2-10.8
			c-15-9.3-29.9-11.6-45.7-3.9c1.3-7.7,8.2-14.2,22.3-21.4c-7-3.4-18.8-1.4-27.6,4.7c-8.3,5.7-13.7,13.9-18.8,22.4
			c1.3-11.2,5.5-21.4,11.3-32c-6.4,2.5-10.9,5.9-14.9,10.2c-7.1,7.8-10.1,17.4-11.9,27.5c-0.6,3.2-1.1,6.4-1.7,9.6
			c-0.9,5-2.3,9.5-6.2,13.3c-3.7,3.7-5.3,8.7-5.6,14.4c4.9-3.5,9.1-7.9,16.3-7.9c-2.8,5.2-6.6,7.8-10.8,10c-4.9,2.6-10,4.8-14.7,7.7
			c-5.8,3.7-9.4,9.3-10.4,16.2c-0.8,5.1,1,8.8,5.7,10.9c4.9,2.2,9.7,2.6,15.2,0.9c7.9-2.4,16.4-3.2,24.5-5.1
			c5.5-1.3,10.9-3,16.2-4.9c8-3,13-9,15.5-17.1c0.4-1.1,0.7-2.3,1.2-3.8c4.1,1,6,4,7.3,7.4c2.9,7.9,2.8,16.2,2.1,24.4
			c-1.9,20.1-7.6,39.2-14.7,58c-5.3,13.9-10.2,27.9-11.9,42.8c-2.4,21.8,1.3,42.3,12.9,61.1c0.4,0.7,0.7,1.4,1.2,2.2
			c-64.8-19.7-133.4-91-128.9-189.6C88.6,149.2,173,68.9,275.2,69c102.6,0.1,176.5,77.9,188.6,158.7c-6-8.9-11.8-18.2-18.4-26.9
			c-26.2-34.4-57.2-63.4-96.4-82.8c-28.1-13.9-57.8-21.2-89.4-18.4c-2.4,0.2-4.8,0.5-7.2,0.9c-1.6,0.2-3.2,0.6-4.9,1.6
			c3,0.6,6,1.1,9,1.7c17,3.3,33.2,8.9,47.3,19.3c20.8,15.2,32,36.1,34.2,61.5c2.8,32.9-6.1,62.7-27.2,88.4
			c-9.4,11.5-23.3,19.7-38,23.3c-0.6-6.9-0.8-13.9-2-20.7c-1.2-6.7-3.4-13.2-5.4-20.4c8.3,8.9,12.8,19.2,16.8,29.9
			C284.9,259.4,274,239.7,253.6,223z"/>
	</g>
</g>
<g>
	<linearGradient id="SVGID_1_" gradientUnits="userSpaceOnUse" x1="1.2768" y1="255.3624" x2="509.4481" y2="255.3624">
		<stop  offset="0" style="stop-color:#FF7300"/>
		<stop  offset="0.1771" style="stop-color:#F97C01"/>
		<stop  offset="0.4705" style="stop-color:#EA9602"/>
		<stop  offset="0.5521" style="stop-color:#E59E03"/>
		<stop  offset="0.8652" style="stop-color:#E5C500"/>
		<stop  offset="0.9944" style="stop-color:#BF6F00"/>
	</linearGradient>
	<circle class="st3" cx="255.4" cy="255.4" r="254.1"/>
</g>
<g class="st0">
	<path class="st4" d="M350,309.9c4.1-27.2,1.7-53.5-6.1-79.3c-3.2-10.6-7.4-20.8-11.2-31.2c-0.3,0.1-0.7,0.2-1,0.3
		c1.5,6.1,3.1,12.2,4.4,18.4c4,19.5,6.6,39.3,4,59.2c-5.4,40.2-27.4,68.7-63.5,86.3c-7.4,3.6-15.5,5.7-23.4,8
		c-6.8,2-13.5,4.1-18.1,9.9c-6,7.5-7.1,16-3.1,24.7c4.2,9.1,11.6,14.3,21.8,14.5c23.2,0.5,45.5-4,66.8-13.2
		c36.1-15.7,63.3-41.1,81.8-75.9c0.4-0.7,0.8-1.4,1.2-2.2c0.1-0.1,0.2-0.2,0.9-0.8c3.3,4.3,6.9,8.3,9.9,12.8c2.7,4.1,5,8.4,7.1,12.9
		c0.6,1.3,0.4,3.5-0.4,4.7c-27.8,43.4-66.4,72.3-116.3,85.3C214.1,467.8,121.1,424.8,79.8,341C44,268.3,57.5,179,113.8,120.6
		c42.4-43.9,94.7-64,155.5-60c90.7,5.8,165.2,74.8,179.2,164.9c3.7,24,2.9,47.9-2.2,71.7c-0.5,2.2-0.6,4.7-0.2,6.9
		c6.6,36.4,6.2,72.7-1.7,108.9c-0.1,0.7-0.4,1.3-0.8,2.6c-0.7-7.8-1.1-14.9-2-21.9c-3-23-9.6-44.7-24.1-63.4
		c-9.9-12.9-22.3-22.3-38.8-25c-9-1.5-17.7-0.1-26,3.4C352,309,351.3,309.4,350,309.9z M236.7,222.8c17.6,14.4,27,31.4,24.8,53.6
		c-3.4-9.2-7.4-18.2-14.5-25.8c1.7,6.2,3.6,11.8,4.6,17.6c1,5.9,1.2,11.9,1.7,17.8c12.6-3.2,24.7-10.3,32.8-20.2
		c18.2-22.2,25.9-47.9,23.5-76.3c-1.9-21.9-11.6-39.9-29.5-53.1c-12.2-8.9-26.1-13.8-40.8-16.7c-2.6-0.5-5.2-1-7.8-1.4
		c1.5-0.8,2.8-1.1,4.2-1.3c2.1-0.3,4.2-0.6,6.3-0.8c27.3-2.4,52.9,3.8,77.2,15.9c33.8,16.7,60.6,41.7,83.2,71.5
		c5.7,7.5,10.6,15.6,15.9,23.2c-10.5-69.8-74.3-137-162.8-137.1c-88.2-0.1-161.1,69.3-165.2,157.7c-4,85.1,55.3,146.7,111.3,163.8
		c-0.4-0.7-0.7-1.4-1-1.9c-10.1-16.2-13.3-33.9-11.2-52.7c1.4-12.9,5.7-25,10.3-37c6.1-16.2,11.1-32.7,12.7-50.1
		c0.7-7.1,0.7-14.2-1.8-21.1c-1.1-3-2.7-5.5-6.3-6.4c-0.4,1.3-0.7,2.3-1.1,3.3c-2.2,7-6.4,12.2-13.4,14.8c-4.6,1.7-9.3,3.2-14,4.3
		c-7,1.6-14.3,2.3-21.2,4.4c-4.8,1.5-8.9,1.1-13.2-0.8c-4.1-1.8-5.6-5-4.9-9.4c0.9-6,4-10.8,9-14c4-2.6,8.4-4.5,12.7-6.7
		c3.6-1.9,6.9-4.1,9.3-8.6c-6.3,0-9.9,3.8-14.1,6.8c0.3-5,1.6-9.3,4.8-12.5c3.3-3.3,4.5-7.2,5.3-11.5c0.5-2.8,0.9-5.5,1.4-8.3
		c1.6-8.7,4.1-17,10.3-23.8c3.4-3.8,7.4-6.7,12.9-8.8c-5,9.2-8.6,17.9-9.7,27.6c4.4-7.4,9-14.4,16.2-19.4c7.6-5.3,23.8-4,23.8-4
		s-18.2,11.8-19.3,18.5c13.6-6.7,26.5-4.6,39.4,3.4c-11.7,2.8-14.5,4.5-15.7,9.3c19.1,1.5,32.2,10.9,38,29.5
		C254.1,229.7,246.8,224.8,236.7,222.8z"/>
</g>
<g>
	<path class="st5" d="M379.1,326.5c5.4-35.6,2.2-70-8-103.7c-4.2-13.8-9.7-27.2-14.6-40.8c-0.4,0.1-0.9,0.3-1.3,0.4
		c1.9,8,4.1,16,5.7,24c5.2,25.5,8.7,51.3,5.2,77.3c-7.1,52.6-35.8,89.8-83,112.8c-9.6,4.7-20.3,7.4-30.6,10.5
		c-8.9,2.6-17.7,5.4-23.7,12.9c-7.9,9.8-9.3,20.9-4.1,32.2c5.5,11.9,15.2,18.7,28.4,19c30.3,0.7,59.5-5.2,87.3-17.3
		c47.2-20.5,82.8-53.7,106.9-99.2c0.5-0.9,1-1.9,1.5-2.8c0.1-0.1,0.2-0.2,1.2-1.1c4.4,5.6,9,10.9,12.9,16.7c3.5,5.3,6.5,11,9.2,16.8
		c0.8,1.6,0.5,4.6-0.5,6.1c-36.3,56.7-86.8,94.6-152,111.5C201.5,532.8,79.9,476.7,25.9,367.2c-46.8-95-29.1-211.8,44.5-288.1
		C125.8,21.7,194.1-4.5,273.6,0.6c118.5,7.6,215.9,97.8,234.1,215.5c4.9,31.4,3.7,62.7-2.8,93.8c-0.6,2.9-0.7,6.1-0.2,9
		c8.7,47.6,8,95-2.2,142.3c-0.2,0.9-0.5,1.7-1.1,3.4c-0.9-10.1-1.4-19.4-2.6-28.6c-3.9-30.1-12.6-58.5-31.4-82.9
		c-13-16.8-29.1-29.1-50.7-32.6c-11.8-1.9-23.1-0.2-34,4.5C381.7,325.4,380.7,325.8,379.1,326.5z M231,212.7
		c23,18.8,35.3,41.1,32.5,70.1c-4.5-12.1-9.7-23.7-19-33.8c2.2,8.1,4.7,15.4,6.1,23c1.4,7.7,1.5,15.6,2.2,23.3
		c16.5-4.1,32.2-13.4,42.8-26.3c23.8-29,33.8-62.6,30.7-99.7c-2.4-28.6-15.1-52.2-38.6-69.4c-15.9-11.7-34.1-18.1-53.4-21.8
		c-3.4-0.7-6.8-1.3-10.2-1.9c1.9-1.1,3.7-1.5,5.5-1.8c2.7-0.4,5.4-0.8,8.2-1c35.7-3.1,69.1,5,100.9,20.8
		c44.1,21.9,79.2,54.6,108.7,93.4c7.5,9.8,13.9,20.3,20.7,30.4C454.4,126.8,371,39,255.3,38.9c-115.3-0.1-210.6,90.6-216,206
		c-5.2,111.3,72.3,191.8,145.4,214c-0.5-1-0.9-1.8-1.3-2.5c-13.1-21.2-17.4-44.3-14.6-68.9c1.9-16.9,7.5-32.6,13.4-48.3
		c8-21.2,14.5-42.8,16.6-65.4c0.9-9.3,1-18.6-2.4-27.6c-1.4-3.9-3.6-7.2-8.2-8.4c-0.5,1.7-1,3-1.4,4.3c-2.8,9.1-8.4,15.9-17.5,19.3
		c-6,2.2-12.1,4.1-18.3,5.6c-9.2,2.1-18.7,3-27.7,5.8c-6.3,1.9-11.7,1.4-17.2-1.1c-5.3-2.4-7.3-6.5-6.4-12.3
		c1.2-7.8,5.2-14.1,11.8-18.3c5.2-3.3,11-5.9,16.5-8.7c4.7-2.5,9-5.4,12.2-11.3c-8.2,0-12.9,4.9-18.4,8.9c0.3-6.5,2.1-12.1,6.3-16.3
		c4.3-4.3,5.9-9.5,6.9-15.1c0.7-3.6,1.2-7.2,1.9-10.8c2.1-11.4,5.4-22.3,13.5-31.1c4.5-4.9,9.6-8.8,16.8-11.6
		c-6.6,12-11.3,23.4-12.7,36.1c5.7-9.6,11.8-18.8,21.2-25.3c10-6.9,31.2-5.3,31.2-5.3s-23.7,15.5-25.2,24.1
		c17.8-8.7,34.6-6,51.5,4.4c-15.3,3.6-19,5.8-20.5,12.2c25,2,42,14.2,49.7,38.5C253.7,221.7,244.1,215.3,231,212.7z"/>
</g>
</svg>
